<?xml version="1.0" standalone="no"?>
<!DOCTYPE svg PUBLIC "-//W3C//DTD SVG 20010904//EN"
 "http://www.w3.org/TR/2001/REC-SVG-20010904/DTD/svg10.dtd">
<svg version="1.0" xmlns="http://www.w3.org/2000/svg"
 width="260.000000pt" height="260.000000pt" viewBox="0 0 260.000000 260.000000"
 preserveAspectRatio="xMidYMid meet">
<metadata>
Created by potrace 1.11, written by Peter Selinger 2001-2013
</metadata>
<g transform="translate(0.000000,260.000000) scale(0.100000,-0.100000)"
fill="#000000" stroke="none">
<path d="M1457 2382 c-22 -24 -21 -72 2 -156 12 -45 29 -79 49 -99 28 -29 29
-34 16 -51 -23 -32 -18 -98 11 -140 29 -43 30 -49 10 -66 -29 -24 -7 -150 26
-150 6 0 26 15 45 34 43 43 45 87 8 166 -25 54 -27 85 -9 146 4 13 1 27 -9 37
-13 12 -15 30 -10 90 8 88 -5 134 -48 177 -34 34 -67 38 -91 12z"/>
<path d="M916 2278 c-37 -58 -27 -127 26 -175 34 -32 58 -80 58 -119 0 -18 15
-43 45 -75 25 -26 45 -55 45 -64 0 -8 9 -41 20 -72 36 -103 119 -162 164 -117
44 43 -4 127 -115 205 -20 14 -24 28 -30 99 -5 72 -9 86 -30 102 -19 16 -24
30 -24 72 -1 63 -27 111 -75 143 -42 29 -66 29 -84 1z"/>
<path d="M2004 2198 c-37 -18 -64 -79 -64 -146 0 -51 -4 -63 -21 -76 -13 -9
-25 -32 -30 -62 -5 -26 -19 -58 -30 -70 -23 -25 -23 -53 3 -151 16 -64 19 -67
51 -52 26 12 47 53 47 91 0 11 18 38 41 60 37 37 40 44 36 82 -2 22 -8 50 -11
62 -6 15 1 28 24 51 38 38 49 81 37 148 -13 74 -32 88 -83 63z"/>
<path d="M375 1797 c-42 -31 33 -139 113 -160 29 -8 51 -22 65 -42 28 -40 41
-49 93 -64 28 -9 63 -32 99 -66 66 -64 153 -110 189 -101 51 13 45 96 -9 151
-34 33 -70 48 -150 60 -32 5 -50 18 -90 61 -34 37 -63 58 -89 65 -24 7 -56 29
-86 60 -39 40 -54 49 -82 49 -19 0 -42 -6 -53 -13z"/>
<path d="M1615 1634 c-11 -3 -30 -7 -42 -10 -18 -3 -23 -11 -23 -34 0 -20 -8
-35 -24 -45 -22 -14 -28 -14 -75 5 -75 29 -136 27 -166 -6 -15 -16 -25 -39
-25 -55 0 -29 -1 -29 -57 -29 -67 0 -125 -24 -165 -66 -64 -69 -54 -135 27
-174 59 -28 129 -24 213 15 94 43 132 91 132 165 0 35 3 40 24 40 12 0 38 -5
55 -11 49 -17 81 1 81 45 0 47 14 53 59 23 21 -14 57 -31 79 -38 23 -7 42 -15
42 -19 0 -3 -15 -24 -33 -46 -64 -74 -97 -127 -97 -153 0 -47 73 -140 110
-141 8 0 32 19 52 42 28 33 39 40 49 31 32 -32 16 -228 -23 -278 -43 -54 -108
-24 -195 92 -76 101 -113 126 -175 120 -97 -9 -193 -96 -224 -205 -34 -115 7
-276 93 -364 87 -90 236 -79 329 24 18 21 50 72 69 113 44 92 65 105 125 81
51 -20 75 -20 125 3 54 24 103 75 131 137 55 118 38 224 -50 310 -47 46 -51
53 -39 70 30 41 2 98 -58 114 l-39 11 20 27 c47 63 28 147 -40 187 -28 16 -55
20 -140 22 -58 1 -114 0 -125 -3z"/>
<path d="M1062 484 c-13 -9 -33 -32 -46 -52 l-23 -37 -90 0 c-82 0 -93 -2
-138 -30 -72 -45 -88 -71 -76 -124 20 -90 92 -117 188 -69 43 22 67 45 186
181 32 37 79 79 105 94 61 34 59 33 42 43 -25 16 -123 12 -148 -6z"/>
</g>
</svg>
